<?xml version="1.0" encoding="UTF-8" standalone="no"?>
<svg
   xmlns:dc="http://purl.org/dc/elements/1.1/"
   xmlns:cc="http://creativecommons.org/ns#"
   xmlns:rdf="http://www.w3.org/1999/02/22-rdf-syntax-ns#"
   xmlns:svg="http://www.w3.org/2000/svg"
   xmlns="http://www.w3.org/2000/svg"
   xmlns:sodipodi="http://sodipodi.sourceforge.net/DTD/sodipodi-0.dtd"
   xmlns:inkscape="http://www.inkscape.org/namespaces/inkscape"
   version="1.1"
   id="svg2"
   xml:space="preserve"
   width="200.41333"
   height="229.02667"
   viewBox="0 0 200.41333 229.02667"
   sodipodi:docname="discord.eps"><metadata
     id="metadata8"><rdf:RDF><cc:Work
         rdf:about=""><dc:format>image/svg+xml</dc:format><dc:type
           rdf:resource="http://purl.org/dc/dcmitype/StillImage" /></cc:Work></rdf:RDF></metadata><defs
     id="defs6" /><sodipodi:namedview
     pagecolor="#ffffff"
     bordercolor="#666666"
     borderopacity="1"
     objecttolerance="10"
     gridtolerance="10"
     guidetolerance="10"
     inkscape:pageopacity="0"
     inkscape:pageshadow="2"
     inkscape:window-width="640"
     inkscape:window-height="480"
     id="namedview4" /><g
     id="g10"
     inkscape:groupmode="layer"
     inkscape:label="ink_ext_XXXXXX"
     transform="matrix(1.3333333,0,0,-1.3333333,0,229.02667)"><g
       id="g12"
       transform="scale(0.1)"><path
         d="m 995.523,595.871 c 0,0 -30.98,36.91 -56.781,69.481 62.288,14.687 117.408,50.929 155.568,102.453 -30.98,-20.539 -64.22,-37.492 -98.787,-50.856 -40.168,-17.027 -81.918,-29.39 -124.585,-36.91 -73.735,-13.359 -149.055,-13.019 -222.458,1 -43.082,8.52 -85.5,20.883 -126.25,36.828 -21.546,8.184 -42.421,17.957 -62.628,29.399 -2.59,1.582 -5.262,2.25 -7.852,4.257 -1.25,0.668 -2.254,1.254 -3.59,2.59 -15.281,8.43 -23.797,14.36 -23.797,14.36 36.575,-50.27 89.684,-86.094 150.391,-101.121 -25.805,-32.653 -57.789,-71.481 -57.789,-71.481 -103.375,-2.59 -201.91,46.348 -261.863,130.516 2.921,174.187 45.007,345.453 123.586,500.683 69.136,54.45 153.644,86.09 241.406,90.35 l 8.433,-10.44 c -82.5,-20.21 -159.488,-58.7 -225.711,-112.56 0,0 18.957,10.44 50.606,25.13 61.961,28.06 127.508,46.35 195.058,54.2 4.844,0.92 9.774,1.25 14.618,1.59 57.449,7.51 115.82,8.18 173.601,1.67 90.606,-10.44 178.361,-38.16 258.271,-82.59 -62.62,51.27 -135.685,88.43 -213.595,109.31 l 12.023,13.69 c 87.762,-4.26 171.932,-35.9 241.072,-90.35 78.58,-155.23 121,-326.496 123.92,-500.683 C 1197.76,642.219 1099.23,593.281 995.523,595.871 Z M 1326.95,1717.65 H 176.105 C 78.5742,1717.32 -0.335938,1638.07 0,1540.88 V 379.68 C -0.335938,282.148 78.5742,202.832 176.105,202.488 h 973.985 l -45.6,158.91 L 1214.38,259.27 1318.43,163.078 1503.05,0 v 1540.88 c 0.34,97.19 -78.57,176.44 -176.1,176.77 z M 909.766,997.105 c -39.496,3.255 -76.657,-17.957 -94.278,-53.195 -17.285,-35.484 -11.105,-77.906 15.617,-106.965 26.723,-29.058 68.473,-38.828 105.047,-24.468 36.825,14.367 60.957,49.937 60.957,89.351 2.34,50.27 -37.156,93.024 -87.343,95.277 z m -313.805,0 c -48.266,0 -87.762,-39.5 -87.762,-88.097 0,-48.598 39.496,-87.676 87.762,-87.676 48.598,0 88.012,39.078 88.012,87.676 0,48.597 -39.414,88.097 -88.012,88.097 v 0"
         style="fill:#ffffff;fill-opacity:1;fill-rule:nonzero;stroke:none"
         id="path14" /></g></g></svg>
