<?xml version="1.0" encoding="UTF-8" standalone="no"?>
<svg
   xmlns:dc="http://purl.org/dc/elements/1.1/"
   xmlns:cc="http://creativecommons.org/ns#"
   xmlns:rdf="http://www.w3.org/1999/02/22-rdf-syntax-ns#"
   xmlns:svg="http://www.w3.org/2000/svg"
   xmlns="http://www.w3.org/2000/svg"
   xmlns:sodipodi="http://sodipodi.sourceforge.net/DTD/sodipodi-0.dtd"
   xmlns:inkscape="http://www.inkscape.org/namespaces/inkscape"
   version="1.1"
   id="svg2"
   xml:space="preserve"
   width="167.82668"
   height="167.82668"
   viewBox="0 0 167.82668 167.82668"
   sodipodi:docname="Zyfty_Final Select.eps"><metadata
     id="metadata8"><rdf:RDF><cc:Work
         rdf:about=""><dc:format>image/svg+xml</dc:format><dc:type
           rdf:resource="http://purl.org/dc/dcmitype/StillImage" /></cc:Work></rdf:RDF></metadata><defs
     id="defs6" /><sodipodi:namedview
     pagecolor="#ffffff"
     bordercolor="#666666"
     borderopacity="1"
     objecttolerance="10"
     gridtolerance="10"
     guidetolerance="10"
     inkscape:pageopacity="0"
     inkscape:pageshadow="2"
     inkscape:window-width="640"
     inkscape:window-height="480"
     id="namedview4" /><g
     id="g10"
     inkscape:groupmode="layer"
     inkscape:label="ink_ext_XXXXXX"
     transform="matrix(1.3333333,0,0,-1.3333333,0,167.82667)"><g
       id="g12"
       transform="scale(0.1)"><path
         d="M 1233.02,691.414 997.313,927.125 495.281,445.672 h 487.457 l 14.016,-14.016 C 899.031,337.473 840.195,290.383 820.254,290.383 H 302.641 L 567.316,25.7109 c 34.266,-34.26949 89.825,-34.26949 124.094,0 L 1233.02,567.32 c 34.27,34.27 34.27,89.828 0,124.094"
         style="fill:#3c8836;fill-opacity:1;fill-rule:nonzero;stroke:none"
         id="path14" /><path
         d="m 664.586,813.063 v 6.82 H 269.168 v 7.195 L 417.641,968.352 H 956.086 L 691.41,1233.03 c -34.269,34.27 -89.828,34.27 -124.094,0 L 25.6992,691.414 c -34.26561,-34.266 -34.26561,-89.824 0,-124.094 L 255.152,337.867 v 93.789 c 261.086,254.27 397.563,381.407 409.434,381.407"
         style="fill:#136247;fill-opacity:1;fill-rule:nonzero;stroke:none"
         id="path16" /></g></g></svg>
