<?xml version="1.0" encoding="UTF-8" standalone="no"?>
<svg
   xmlns:dc="http://purl.org/dc/elements/1.1/"
   xmlns:cc="http://creativecommons.org/ns#"
   xmlns:rdf="http://www.w3.org/1999/02/22-rdf-syntax-ns#"
   xmlns:svg="http://www.w3.org/2000/svg"
   xmlns="http://www.w3.org/2000/svg"
   xmlns:sodipodi="http://sodipodi.sourceforge.net/DTD/sodipodi-0.dtd"
   xmlns:inkscape="http://www.inkscape.org/namespaces/inkscape"
   version="1.1"
   id="svg2"
   xml:space="preserve"
   width="235.34666"
   height="74.546669"
   viewBox="0 0 235.34666 74.546669"
   sodipodi:docname="WHT Logo with icon trans bckgnd 2.eps"><metadata
     id="metadata8"><rdf:RDF><cc:Work
         rdf:about=""><dc:format>image/svg+xml</dc:format><dc:type
           rdf:resource="http://purl.org/dc/dcmitype/StillImage" /></cc:Work></rdf:RDF></metadata><defs
     id="defs6" /><sodipodi:namedview
     pagecolor="#ffffff"
     bordercolor="#666666"
     borderopacity="1"
     objecttolerance="10"
     gridtolerance="10"
     guidetolerance="10"
     inkscape:pageopacity="0"
     inkscape:pageshadow="2"
     inkscape:window-width="640"
     inkscape:window-height="480"
     id="namedview4" /><g
     id="g10"
     inkscape:groupmode="layer"
     inkscape:label="ink_ext_XXXXXX"
     transform="matrix(1.3333333,0,0,-1.3333333,0,74.546667)"><g
       id="g12"
       transform="scale(0.1)"><path
         d="M 1753.71,307.133 1649,411.84 1426,197.973 h 216.53 l 6.23,-6.227 c -43.41,-41.84 -69.55,-62.758 -78.41,-62.758 H 1340.42 L 1458,11.418 c 15.22,-15.22269 39.9,-15.22269 55.12,0 l 240.59,240.59 c 15.22,15.222 15.22,39.902 0,55.125"
         style="fill:#3c8836;fill-opacity:1;fill-rule:nonzero;stroke:none"
         id="path14" /><path
         d="m 1501.2,361.172 v 3.027 h -175.65 v 3.196 l 65.96,62.757 h 239.18 l -117.57,117.571 c -15.22,15.222 -39.9,15.222 -55.12,0 l -240.6,-240.59 c -15.22,-15.223 -15.22,-39.903 0,-55.125 l 101.93,-101.922 v 41.66 c 115.98,112.949 176.6,169.426 181.87,169.426"
         style="fill:#136247;fill-opacity:1;fill-rule:nonzero;stroke:none"
         id="path16" /><path
         d="m 183.715,243.77 c 2.547,0 4.57,-0.926 6.082,-2.782 1.504,-1.855 1.91,-4.062 1.215,-6.601 l -8.692,-41.028 c -0.468,-2.546 -1.797,-4.754 -3.996,-6.601 -2.203,-1.856 -4.582,-2.781 -7.125,-2.781 H 7.80859 c -2.54687,0 -4.57031,0.925 -6.08203,2.781 -1.503904,1.847 -2.027341,4.055 -1.562497,6.601 L 8.85547,233.34 c 0.45703,2.781 1.44533,5.156 2.95313,7.129 1.5039,1.965 3.1836,3.644 5.0391,5.039 l 78.2187,59.445 H 35.6211 c -2.5508,0 -4.5195,0.918 -5.9102,2.781 -1.3867,1.844 -1.8554,4.051 -1.3867,6.602 l 8.6914,41.027 c 0.4571,2.539 1.8477,4.746 4.168,6.602 2.3164,1.855 4.7461,2.781 7.3008,2.781 H 202.137 c 2.547,0 4.519,-0.926 5.906,-2.781 1.395,-1.856 1.855,-4.063 1.395,-6.602 l -9.04,-43.808 c -0.929,-3.946 -3.359,-7.297 -7.3,-10.078 L 118.355,243.77 h 65.36"
         style="fill:#ffffff;fill-opacity:1;fill-rule:nonzero;stroke:none"
         id="path18" /><path
         d="m 245.242,353.965 c -0.469,2.781 0.223,5.273 2.086,7.473 1.848,2.207 4.746,3.308 8.692,3.308 h 55.273 c 3.477,0 5.789,-0.926 6.953,-2.781 1.156,-1.856 1.961,-3.711 2.43,-5.567 l 13.558,-79.257 47.969,79.257 c 1.16,2.09 2.84,4.004 5.047,5.743 2.195,1.738 5.039,2.605 8.516,2.605 h 61.531 c 3.242,0 5.211,-1.219 5.91,-3.652 0.691,-2.434 0.457,-4.813 -0.699,-7.129 L 316.156,126.27 c -1.164,-2.09 -2.902,-4.004 -5.211,-5.743 -2.32,-1.738 -5.215,-2.605 -8.691,-2.605 h -60.488 c -2.786,0 -4.692,1.172 -5.739,3.476 -1.043,2.325 -0.757,4.754 0.871,7.305 l 42.063,66.746 -33.719,158.516"
         style="fill:#ffffff;fill-opacity:1;fill-rule:nonzero;stroke:none"
         id="path20" /><path
         d="m 622.77,364.746 h 39.628 c 2.551,0 4.52,-0.926 5.911,-2.781 1.39,-1.856 1.851,-4.063 1.39,-6.602 l -8.691,-42.07 c -0.692,-2.551 -2.145,-4.746 -4.344,-6.602 -2.207,-1.855 -4.582,-2.785 -7.125,-2.785 h -39.633 l -23.64,-110.547 c -0.469,-2.546 -1.797,-4.754 -3.996,-6.601 -2.204,-1.856 -4.579,-2.781 -7.125,-2.781 h -60.836 c -2.555,0 -4.579,0.925 -6.082,2.781 -1.512,1.847 -2.032,4.055 -1.563,6.601 l 23.637,110.547 h -23.988 c -2.555,0 -4.579,0.93 -6.086,2.785 -1.508,1.856 -1.911,4.051 -1.215,6.602 l 8.691,42.07 c 0.465,2.539 1.852,4.746 4.168,6.602 2.317,1.855 4.754,2.781 7.305,2.781 h 23.984 l 1.395,5.91 c 3.008,14.129 7.468,25.782 13.383,34.93 5.906,9.16 13.035,16.398 21.375,21.73 8.347,5.332 17.906,8.985 28.683,10.957 10.777,1.961 22.422,2.95 34.938,2.95 h 39.281 c 2.547,0 4.515,-0.93 5.91,-2.785 1.391,-1.856 1.852,-4.051 1.391,-6.602 l -9.039,-42.059 c -0.469,-2.558 -1.797,-4.757 -4,-6.613 -2.204,-1.855 -4.579,-2.773 -7.125,-2.773 h -28.157 c -10.203,0 -15.992,-3.828 -17.382,-11.473 l -1.043,-4.172"
         style="fill:#ffffff;fill-opacity:1;fill-rule:nonzero;stroke:none"
         id="path22" /><path
         d="m 810.141,265.664 c -1.164,-5.332 -0.871,-9.559 0.867,-12.684 1.738,-3.125 5.269,-4.687 10.605,-4.687 h 31.633 c 2.547,0 4.52,-0.938 5.91,-2.785 1.395,-1.856 1.852,-4.063 1.395,-6.61 l -9.738,-45.539 c -0.469,-2.546 -1.797,-4.754 -4,-6.601 -2.2,-1.856 -4.575,-2.781 -7.122,-2.781 h -35.808 c -12.512,0 -24.047,1.218 -34.586,3.652 -10.547,2.43 -19.293,6.543 -26.246,12.332 -6.953,5.793 -11.77,13.449 -14.43,22.949 -2.668,9.5 -2.488,21.438 0.524,35.801 l 9.73,45.195 h -27.461 c -2.555,0 -4.578,0.93 -6.086,2.785 -1.508,1.856 -1.91,4.051 -1.215,6.602 l 8.692,42.07 c 0.461,2.539 1.851,4.746 4.172,6.602 2.312,1.855 4.746,2.781 7.296,2.781 h 27.469 l 12.16,56.66 c 0.465,2.547 1.793,4.746 4,6.602 2.203,1.855 4.575,2.781 7.129,2.781 h 60.836 c 2.543,0 4.571,-0.926 6.082,-2.781 1.504,-1.856 2.028,-4.055 1.563,-6.602 l -12.168,-56.66 h 43.804 c 2.543,0 4.52,-0.926 5.911,-2.781 1.39,-1.856 1.847,-4.063 1.39,-6.602 l -8.691,-42.07 c -0.695,-2.551 -2.145,-4.746 -4.348,-6.602 -2.207,-1.855 -4.578,-2.785 -7.121,-2.785 h -43.805 l -8.343,-38.242"
         style="fill:#ffffff;fill-opacity:1;fill-rule:nonzero;stroke:none"
         id="path24" /><path
         d="m 921.727,353.965 c -0.469,2.781 0.222,5.273 2.086,7.473 1.847,2.207 4.746,3.308 8.691,3.308 h 55.273 c 3.477,0 5.789,-0.926 6.953,-2.781 1.157,-1.856 1.961,-3.711 2.43,-5.567 l 13.56,-79.257 47.97,79.257 c 1.16,2.09 2.84,4.004 5.04,5.743 2.2,1.738 5.04,2.605 8.52,2.605 h 61.53 c 3.24,0 5.21,-1.219 5.91,-3.652 0.69,-2.434 0.46,-4.813 -0.7,-7.129 L 992.641,126.27 c -1.164,-2.09 -2.903,-4.004 -5.211,-5.743 -2.321,-1.738 -5.215,-2.605 -8.692,-2.605 H 918.25 c -2.785,0 -4.691,1.172 -5.738,3.476 -1.043,2.325 -0.754,4.754 0.871,7.305 l 42.062,66.746 -33.718,158.516"
         style="fill:#ffffff;fill-opacity:1;fill-rule:nonzero;stroke:none"
         id="path26" /></g></g></svg>
