<?xml version="1.0" encoding="UTF-8" standalone="no"?>
<svg
   xmlns:dc="http://purl.org/dc/elements/1.1/"
   xmlns:cc="http://creativecommons.org/ns#"
   xmlns:rdf="http://www.w3.org/1999/02/22-rdf-syntax-ns#"
   xmlns:svg="http://www.w3.org/2000/svg"
   xmlns="http://www.w3.org/2000/svg"
   xmlns:sodipodi="http://sodipodi.sourceforge.net/DTD/sodipodi-0.dtd"
   xmlns:inkscape="http://www.inkscape.org/namespaces/inkscape"
   version="1.1"
   id="svg2"
   xml:space="preserve"
   width="158.44"
   height="159.52"
   viewBox="0 0 158.44 159.52"
   sodipodi:docname="Zyfty Infographic-05.eps"><metadata
     id="metadata8"><rdf:RDF><cc:Work
         rdf:about=""><dc:format>image/svg+xml</dc:format><dc:type
           rdf:resource="http://purl.org/dc/dcmitype/StillImage" /></cc:Work></rdf:RDF></metadata><defs
     id="defs6" /><sodipodi:namedview
     pagecolor="#ffffff"
     bordercolor="#666666"
     borderopacity="1"
     objecttolerance="10"
     gridtolerance="10"
     guidetolerance="10"
     inkscape:pageopacity="0"
     inkscape:pageshadow="2"
     inkscape:window-width="640"
     inkscape:window-height="480"
     id="namedview4" /><g
     id="g10"
     inkscape:groupmode="layer"
     inkscape:label="ink_ext_XXXXXX"
     transform="matrix(1.3333333,0,0,-1.3333333,0,159.52)"><g
       id="g12"
       transform="scale(0.1)"><path
         d="m 995.699,966.828 c -40.844,25.504 -81.336,50.792 -123.039,76.832 0,-43.29 0,-84.801 0,-126.176 40.895,-25.55 81.289,-50.789 123.039,-76.871 0,43.188 0,84.071 0,126.215 z m 159.451,76.942 c -42.5,-26.56 -83.07,-51.911 -123.34,-77.075 0,-41.871 0,-83 0,-126.23 42.26,26.5 82.99,52.039 123.34,77.344 0,42.019 0,82.921 0,125.961 z m -267.759,31.78 c 43.425,-27.1 84.933,-53.01 126.489,-78.952 42.24,26.442 83.63,52.362 126.22,79.032 -42.85,26.78 -84.36,52.71 -126.26,78.9 -42.063,-26.27 -83.57,-52.2 -126.449,-78.98 z M 1188.22,897.676 c -58.18,-36.582 -116.45,-73.02 -174.42,-109.926 -58.718,37.336 -117.671,74.309 -176.925,110.789 0.617,62.27 0.656,124.551 -0.027,186.821 52.652,32.34 104.957,65.23 157.312,98.05 6.38,3.99 12.07,9.09 18.5,12.99 23.29,-14.57 46.64,-29.01 69.87,-43.67 35.29,-22.27 70.52,-44.64 105.77,-66.97 -0.04,-81.75 -0.05,-106.334 -0.08,-188.084"
         style="fill:#ffffff;fill-opacity:1;fill-rule:nonzero;stroke:none"
         id="path14" /><path
         d="m 159.656,966.828 c -40.843,25.504 -81.3357,50.792 -123.0388,76.832 0,-43.29 0,-84.801 0,-126.176 40.8945,-25.55 81.2888,-50.789 123.0388,-76.871 0,43.188 0,84.071 0,126.215 z m 159.449,76.942 c -42.5,-26.56 -83.066,-51.911 -123.339,-77.075 0,-41.871 0,-83 0,-126.23 42.261,26.5 82.992,52.039 123.339,77.344 0,42.019 0,82.921 0,125.961 z m -267.7534,31.78 c 43.4218,-27.1 84.9334,-53.01 126.4884,-78.952 42.234,26.442 83.625,52.362 126.219,79.032 -42.856,26.78 -84.356,52.71 -126.262,78.9 -42.063,-26.27 -83.5704,-52.2 -126.4454,-78.98 z M 352.18,897.676 C 294,861.094 235.73,824.656 177.758,787.75 119.039,825.086 60.0859,862.059 0.832031,898.539 1.45313,960.809 1.48828,1023.09 0.808594,1085.36 53.457,1117.7 105.762,1150.59 158.117,1183.41 c 6.379,3.99 12.067,9.09 18.504,12.99 23.285,-14.57 46.641,-29.01 69.867,-43.67 35.293,-22.27 70.516,-44.64 105.766,-66.97 -0.031,-81.75 -0.043,-106.334 -0.074,-188.084"
         style="fill:#ffffff;fill-opacity:1;fill-rule:nonzero;stroke:none"
         id="path16" /><path
         d="m 578.484,573.016 c -40.843,25.504 -81.336,50.793 -123.039,76.832 0,-43.289 0,-84.797 0,-126.172 40.895,-25.551 81.289,-50.789 123.039,-76.875 0,43.187 0,84.07 0,126.215 z m 159.45,76.937 c -42.5,-26.555 -83.067,-51.902 -123.34,-77.07 0,-41.871 0,-83 0,-126.231 42.261,26.5 82.992,52.043 123.34,77.344 0,42.024 0,82.926 0,125.957 z M 470.18,681.742 c 43.422,-27.105 84.933,-53.015 126.488,-78.957 42.234,26.449 83.625,52.363 126.219,79.031 -42.856,26.782 -84.356,52.715 -126.262,78.903 C 554.563,734.445 513.055,708.52 470.18,681.742 Z M 771.008,503.863 C 712.828,467.281 654.559,430.844 596.586,393.938 537.867,431.273 478.914,468.25 419.66,504.727 c 0.621,62.273 0.656,124.554 -0.023,186.828 52.648,32.332 104.953,65.23 157.308,98.043 6.379,3.996 12.067,9.09 18.504,12.992 23.285,-14.57 46.641,-29.016 69.867,-43.668 35.293,-22.27 70.516,-44.645 105.766,-66.977 -0.031,-81.75 -0.043,-106.332 -0.074,-188.082"
         style="fill:#ffffff;fill-opacity:1;fill-rule:nonzero;stroke:none"
         id="path18" /><path
         d="m 158.852,180.82 c -40.844,25.504 -81.3403,50.789 -123.0434,76.832 0,-43.289 0,-84.8 0,-126.172 40.8984,-25.55 81.2934,-50.7886 123.0434,-76.8784 0,43.1875 0,84.0704 0,126.2184 z m 159.449,76.938 c -42.5,-26.555 -83.071,-51.906 -123.34,-77.067 0,-41.871 0,-82.9996 0,-126.2418 42.262,26.5117 82.988,52.0508 123.34,77.3518 0,42.019 0,82.926 0,125.957 z M 50.543,289.543 c 43.4218,-27.105 84.934,-53.016 126.488,-78.953 42.239,26.445 83.625,52.359 126.219,79.031 -42.852,26.777 -84.355,52.715 -126.258,78.899 C 134.926,342.25 93.4219,316.324 50.543,289.543 Z M 351.371,111.672 C 293.191,75.0781 234.926,38.6484 176.953,1.73828 118.234,39.0781 59.2813,76.0508 0.0273438,112.531 0.644531,174.801 0.683594,237.086 0,299.355 c 52.6523,32.333 104.953,65.231 157.313,98.043 6.375,3.997 12.066,9.094 18.503,12.993 23.282,-14.567 46.641,-29.012 69.868,-43.668 35.293,-22.266 70.511,-44.645 105.765,-66.973 -0.035,-81.754 -0.047,-106.328 -0.078,-188.078"
         style="fill:#ffffff;fill-opacity:1;fill-rule:nonzero;stroke:none"
         id="path20" /><path
         d="m 995.664,179.078 c -40.844,25.512 -81.34,50.797 -123.043,76.84 0,-43.289 0,-84.797 0,-126.18 40.899,-25.547 81.289,-50.7888 123.043,-76.8669 0,43.1875 0,84.0699 0,126.2069 z m 159.446,76.945 c -42.5,-26.558 -83.07,-51.906 -123.34,-77.074 0,-41.867 0,-82.9998 0,-126.2302 42.26,26.5 82.99,52.0432 123.34,77.3402 0,42.031 0,82.929 0,125.964 z m -267.755,31.786 c 43.422,-27.106 84.934,-53.016 126.485,-78.954 42.24,26.446 83.63,52.36 126.22,79.032 -42.85,26.777 -84.35,52.715 -126.26,78.898 C 971.738,340.512 930.23,314.59 887.355,287.809 Z M 1188.18,109.93 C 1130.01,73.3516 1071.74,36.9102 1013.76,0 955.047,37.3398 896.094,74.3203 836.84,110.789 c 0.617,62.281 0.652,124.563 -0.027,186.832 52.652,32.332 104.953,65.231 157.308,98.043 6.379,3.996 12.069,9.094 18.509,12.992 23.28,-14.566 46.64,-29.015 69.86,-43.668 35.3,-22.265 70.52,-44.644 105.77,-66.972 -0.03,-81.754 -0.04,-106.336 -0.08,-188.086"
         style="fill:#ffffff;fill-opacity:1;fill-rule:nonzero;stroke:none"
         id="path22" /><path
         d="m 161.398,475.992 v 249.301 h 36.313 V 475.992 h -36.313"
         style="fill:#ffffff;fill-opacity:1;fill-rule:nonzero;stroke:none"
         id="path24" /><path
         d="m 994.211,475.992 v 249.301 h 36.319 V 475.992 h -36.319"
         style="fill:#ffffff;fill-opacity:1;fill-rule:nonzero;stroke:none"
         id="path26" /><path
         d="m 749.828,769.48 107.133,68.637 19.59,-30.578 -107.133,-68.637 -19.59,30.578"
         style="fill:#ffffff;fill-opacity:1;fill-rule:nonzero;stroke:none"
         id="path28" /><path
         d="m 315.262,376.07 107.133,68.641 19.589,-30.578 -107.132,-68.637 -19.59,30.574"
         style="fill:#ffffff;fill-opacity:1;fill-rule:nonzero;stroke:none"
         id="path30" /><path
         d="m 335.152,840.621 105.024,-71.824 -20.5,-29.977 -105.024,71.825 20.5,29.976"
         style="fill:#ffffff;fill-opacity:1;fill-rule:nonzero;stroke:none"
         id="path32" /><path
         d="m 769.719,446 105.019,-71.824 -20.5,-29.973 -105.019,71.824 20.5,29.973"
         style="fill:#ffffff;fill-opacity:1;fill-rule:nonzero;stroke:none"
         id="path34" /><path
         d="m 423.266,1019.44 h 345.39 v -36.315 h -345.39 v 36.315"
         style="fill:#ffffff;fill-opacity:1;fill-rule:nonzero;stroke:none"
         id="path36" /><path
         d="m 423.266,212.449 h 345.39 v -36.308 h -345.39 v 36.308"
         style="fill:#ffffff;fill-opacity:1;fill-rule:nonzero;stroke:none"
         id="path38" /></g></g></svg>
