<?xml version="1.0" encoding="UTF-8" standalone="no"?>
<svg
   xmlns:dc="http://purl.org/dc/elements/1.1/"
   xmlns:cc="http://creativecommons.org/ns#"
   xmlns:rdf="http://www.w3.org/1999/02/22-rdf-syntax-ns#"
   xmlns:svg="http://www.w3.org/2000/svg"
   xmlns="http://www.w3.org/2000/svg"
   xmlns:sodipodi="http://sodipodi.sourceforge.net/DTD/sodipodi-0.dtd"
   xmlns:inkscape="http://www.inkscape.org/namespaces/inkscape"
   version="1.1"
   id="svg2"
   xml:space="preserve"
   width="145.44"
   height="145.44"
   viewBox="0 0 145.44 145.44"
   sodipodi:docname="Zyfty Infographic-03.eps"><metadata
     id="metadata8"><rdf:RDF><cc:Work
         rdf:about=""><dc:format>image/svg+xml</dc:format><dc:type
           rdf:resource="http://purl.org/dc/dcmitype/StillImage" /></cc:Work></rdf:RDF></metadata><defs
     id="defs6" /><sodipodi:namedview
     pagecolor="#ffffff"
     bordercolor="#666666"
     borderopacity="1"
     objecttolerance="10"
     gridtolerance="10"
     guidetolerance="10"
     inkscape:pageopacity="0"
     inkscape:pageshadow="2"
     inkscape:window-width="640"
     inkscape:window-height="480"
     id="namedview4" /><g
     id="g10"
     inkscape:groupmode="layer"
     inkscape:label="ink_ext_XXXXXX"
     transform="matrix(1.3333333,0,0,-1.3333333,0,145.44)"><g
       id="g12"
       transform="scale(0.1)"><path
         d="M 1068.49,599.148 864.227,803.406 429.191,386.199 h 422.411 l 12.144,-12.144 C 779.063,292.438 728.074,251.633 710.797,251.633 H 262.254 L 491.613,22.2695 c 29.692,-29.69138 77.836,-29.69138 107.532,0 L 1068.49,491.613 c 29.69,29.696 29.69,77.84 0,107.535"
         style="fill:#ffffff;fill-opacity:1;fill-rule:nonzero;stroke:none"
         id="path14" /><path
         d="m 575.902,704.566 v 5.907 H 233.25 v 6.238 L 361.906,839.133 H 828.504 L 599.145,1068.49 c -29.696,29.69 -77.84,29.69 -107.532,0 L 22.2695,599.148 c -29.69138,-29.695 -29.69138,-77.839 0,-107.535 L 221.105,292.781 v 81.274 c 226.247,220.34 344.508,330.511 354.797,330.511"
         style="fill:#ffffff;fill-opacity:1;fill-rule:nonzero;stroke:none"
         id="path16" /></g></g></svg>
