<?xml version="1.0" encoding="UTF-8" standalone="no"?>
<svg
   xmlns:dc="http://purl.org/dc/elements/1.1/"
   xmlns:cc="http://creativecommons.org/ns#"
   xmlns:rdf="http://www.w3.org/1999/02/22-rdf-syntax-ns#"
   xmlns:svg="http://www.w3.org/2000/svg"
   xmlns="http://www.w3.org/2000/svg"
   xmlns:sodipodi="http://sodipodi.sourceforge.net/DTD/sodipodi-0.dtd"
   xmlns:inkscape="http://www.inkscape.org/namespaces/inkscape"
   version="1.1"
   id="svg2"
   xml:space="preserve"
   width="118.13333"
   height="136.41333"
   viewBox="0 0 118.13333 136.41333"
   sodipodi:docname="Zyfty Infographic-04.eps"><metadata
     id="metadata8"><rdf:RDF><cc:Work
         rdf:about=""><dc:format>image/svg+xml</dc:format><dc:type
           rdf:resource="http://purl.org/dc/dcmitype/StillImage" /></cc:Work></rdf:RDF></metadata><defs
     id="defs6" /><sodipodi:namedview
     pagecolor="#ffffff"
     bordercolor="#666666"
     borderopacity="1"
     objecttolerance="10"
     gridtolerance="10"
     guidetolerance="10"
     inkscape:pageopacity="0"
     inkscape:pageshadow="2"
     inkscape:window-width="640"
     inkscape:window-height="480"
     id="namedview4" /><g
     id="g10"
     inkscape:groupmode="layer"
     inkscape:label="ink_ext_XXXXXX"
     transform="matrix(1.3333333,0,0,-1.3333333,0,136.41333)"><g
       id="g12"
       transform="scale(0.1)"><path
         d="M 856.117,274.797 V 755.328 L 439.965,995.594 23.8125,755.328 V 274.797 L 439.965,34.5313 Z"
         style="fill:none;stroke:#ffffff;stroke-width:24.0266;stroke-linecap:butt;stroke-linejoin:miter;stroke-miterlimit:10;stroke-dasharray:none;stroke-opacity:1"
         id="path14" /><path
         d="m 703.645,586.008 h -49.7 V 424.281 h -30.629 v 161.727 h -49.968 v 24.988 h 130.297 z m -167.907,0 h -79.254 v -55.07 h 61.793 V 505.953 H 456.484 V 424.281 H 425.859 V 610.996 H 535.738 Z M 366.766,424.281 H 336.137 L 243.984,563.715 V 424.281 h -30.625 v 186.985 h 30.625 l 92.153,-139.168 v 139.168 h 30.629 z M 439.965,925.809 84.25,720.438 V 309.691 L 439.965,104.316 795.68,309.691 V 720.438 L 439.965,925.809"
         style="fill:#ffffff;fill-opacity:1;fill-rule:nonzero;stroke:none"
         id="path16" /></g></g></svg>
