<?xml version="1.0" encoding="UTF-8" standalone="no"?>
<svg
   xmlns:dc="http://purl.org/dc/elements/1.1/"
   xmlns:cc="http://creativecommons.org/ns#"
   xmlns:rdf="http://www.w3.org/1999/02/22-rdf-syntax-ns#"
   xmlns:svg="http://www.w3.org/2000/svg"
   xmlns="http://www.w3.org/2000/svg"
   xmlns:sodipodi="http://sodipodi.sourceforge.net/DTD/sodipodi-0.dtd"
   xmlns:inkscape="http://www.inkscape.org/namespaces/inkscape"
   version="1.1"
   id="svg2"
   xml:space="preserve"
   width="399.42667"
   height="225.33333"
   viewBox="0 0 399.42667 225.33333"
   sodipodi:docname="Medium icon white.eps"><metadata
     id="metadata8"><rdf:RDF><cc:Work
         rdf:about=""><dc:format>image/svg+xml</dc:format><dc:type
           rdf:resource="http://purl.org/dc/dcmitype/StillImage" /></cc:Work></rdf:RDF></metadata><defs
     id="defs6" /><sodipodi:namedview
     pagecolor="#ffffff"
     bordercolor="#666666"
     borderopacity="1"
     objecttolerance="10"
     gridtolerance="10"
     guidetolerance="10"
     inkscape:pageopacity="0"
     inkscape:pageshadow="2"
     inkscape:window-width="640"
     inkscape:window-height="480"
     id="namedview4" /><g
     id="g10"
     inkscape:groupmode="layer"
     inkscape:label="ink_ext_XXXXXX"
     transform="matrix(1.3333333,0,0,-1.3333333,0,225.33333)"><g
       id="g12"
       transform="scale(0.1)"><path
         d="M 1690,845 C 1690,378.32 1311.68,0 845,0 378.32,0 0,378.32 0,845 c 0,466.68 378.32,845 845,845 466.68,0 845,-378.32 845,-845"
         style="fill:#ffffff;fill-opacity:1;fill-rule:nonzero;stroke:none"
         id="path14" /><path
         d="m 2612.44,845 c 0,-439.559 -189.16,-795.8984 -422.5,-795.8984 -233.34,0 -422.5,356.3394 -422.5,795.8984 0,439.57 189.16,795.9 422.5,795.9 233.34,0 422.5,-356.33 422.5,-795.9"
         style="fill:#ffffff;fill-opacity:1;fill-rule:nonzero;stroke:none"
         id="path16" /><path
         d="m 2995.68,845 c 0,-391.762 -67.54,-709.34 -150.87,-709.34 -83.32,0 -150.86,317.578 -150.86,709.34 0,391.76 67.54,709.34 150.86,709.34 83.33,0 150.87,-317.58 150.87,-709.34"
         style="fill:#ffffff;fill-opacity:1;fill-rule:nonzero;stroke:none"
         id="path18" /></g></g></svg>
