<?xml version="1.0" encoding="UTF-8" standalone="no"?>
<svg
   xmlns:dc="http://purl.org/dc/elements/1.1/"
   xmlns:cc="http://creativecommons.org/ns#"
   xmlns:rdf="http://www.w3.org/1999/02/22-rdf-syntax-ns#"
   xmlns:svg="http://www.w3.org/2000/svg"
   xmlns="http://www.w3.org/2000/svg"
   xmlns:sodipodi="http://sodipodi.sourceforge.net/DTD/sodipodi-0.dtd"
   xmlns:inkscape="http://www.inkscape.org/namespaces/inkscape"
   version="1.1"
   id="svg2"
   xml:space="preserve"
   width="267.86667"
   height="218.05333"
   viewBox="0 0 267.86667 218.05333"
   sodipodi:docname="twitter.eps"><metadata
     id="metadata8"><rdf:RDF><cc:Work
         rdf:about=""><dc:format>image/svg+xml</dc:format><dc:type
           rdf:resource="http://purl.org/dc/dcmitype/StillImage" /></cc:Work></rdf:RDF></metadata><defs
     id="defs6" /><sodipodi:namedview
     pagecolor="#ffffff"
     bordercolor="#666666"
     borderopacity="1"
     objecttolerance="10"
     gridtolerance="10"
     guidetolerance="10"
     inkscape:pageopacity="0"
     inkscape:pageshadow="2"
     inkscape:window-width="640"
     inkscape:window-height="480"
     id="namedview4" /><g
     id="g10"
     inkscape:groupmode="layer"
     inkscape:label="ink_ext_XXXXXX"
     transform="matrix(1.3333333,0,0,-1.3333333,0,218.05333)"><g
       id="g12"
       transform="scale(0.1)"><path
         d="m 2008.97,1439.3 c -75.34,-32.55 -155.4,-54.14 -236.96,-64.28 86.29,51.72 150.68,132.59 181.61,227.91 -80.76,-47.81 -169.45,-81.97 -262.07,-100.45 -127.17,138.12 -331.58,172.68 -496.72,84.38 -165.63,-88.69 -250.416,-277.44 -206.416,-459.85 -331.18,16.87 -639.559,173.37 -848.691,430.82 -36.563,-63.18 -55.348,-135 -55.348,-207.93 -0.3984,-137.41 68.305,-266.08 182.816,-342.63 -65.496,2.01 -129.48,19.69 -186.734,51.43 v -5.12 c 0.8047,-195.775 139.324,-363.725 331.582,-401.799 -36.16,-10.945 -73.43,-16.472 -110.691,-16.871 -25.922,0 -51.836,2.41 -77.352,7.129 C 278.242,474.488 432.832,359.879 608.617,356.77 463.77,242.559 284.871,180.18 100.449,179.781 c -33.7537,0 -67.1013,2 -100.449,5.918 C 188.34,64.0586 407.719,-0.328125 631.719,0.0703125 944.016,-3.44141 1245.06,119.41 1465.94,339.891 c 221.29,220.48 344.45,521.027 342.13,833.419 0,16.88 0,34.86 0,52.94 78.85,58.86 146.76,131.09 200.9,213.05 v 0"
         style="fill:#ffffff;fill-opacity:1;fill-rule:nonzero;stroke:none"
         id="path14" /></g></g></svg>
